<?xml version="1.0" encoding="UTF-8"?>
<svg width="140px" height="81px" viewBox="0 0 140 81" version="1.1" xmlns="http://www.w3.org/2000/svg" xmlns:xlink="http://www.w3.org/1999/xlink">
    <!-- Generator: Sketch 52.2 (67145) - http://www.bohemiancoding.com/sketch -->
    <title>Group 6</title>
    <desc>Created with Sketch.</desc>
    <g id="Page-1" stroke="none" stroke-width="1" fill="none" fill-rule="evenodd">
        <g id="Desktop-HD---Concept---Colored" transform="translate(-150.000000, -17.000000)" fill="#FFFFFF">
            <g id="Group-6" transform="translate(150.000000, 17.000000)">
                <path d="M30.4087373,35.2192184 L27.3773224,26.7349272 L12.1240121,26.7349272 L9.09259714,35.2192184 L4.66576893,35.2192184 L17.6094297,0.399295019 L21.7956694,0.399295019 L34.8355656,35.2192184 L30.4087373,35.2192184 Z M13.4713077,23.0077241 L26.0300268,23.0077241 L19.7747261,5.59776245 L19.6784907,5.59776245 L13.4713077,23.0077241 Z M54.6720865,35.5134713 C50.694337,35.5134713 47.5025616,34.2302146 45.0966646,31.6636628 C42.6907677,29.097111 41.4878373,25.5579383 41.4878373,21.0460383 L41.4878373,0.399295019 L45.674077,0.399295019 L45.674077,20.7517854 C45.674077,23.9885832 46.4920697,26.5796173 48.1280796,28.5249655 C49.7640895,30.4703137 51.9454034,31.4429732 54.6720865,31.4429732 C57.3987697,31.4429732 59.5961226,30.4866609 61.2642112,28.5740077 C62.9322997,26.6613544 63.7663315,24.0539731 63.7663315,20.7517854 L63.7663315,0.399295019 L67.9525712,0.399295019 L67.9525712,21.0460383 C67.9525712,25.5252433 66.7576603,29.0562425 64.3678027,31.6391418 C61.9779451,34.222041 58.746072,35.5134713 54.6720865,35.5134713 Z M85.0945011,35.2192184 L85.0945011,4.32266667 L74.8454314,4.32266667 L74.8454314,0.399295019 L99.5779282,0.399295019 L99.5779282,4.32266667 L89.2807408,4.32266667 L89.2807408,35.2192184 L85.0945011,35.2192184 Z M122.638335,35.5134713 C117.569912,35.5134713 113.439851,33.8378814 110.248028,30.4866513 C107.056204,27.1354213 105.460317,22.9096653 105.460317,17.8092567 C105.460317,12.7088481 107.056204,8.4749185 110.248028,5.107341 C113.439851,1.73976349 117.569912,0.056 122.638335,0.056 C127.514286,0.056 131.572171,1.69889545 134.812113,4.98473563 C138.052054,8.27057582 139.672,12.5453734 139.672,17.8092567 C139.672,23.0404451 138.052054,27.2988954 134.812113,30.5847356 C131.572171,33.8705758 127.514286,35.5134713 122.638335,35.5134713 Z M122.638335,31.4429732 C126.231141,31.4429732 129.238467,30.1597165 131.660403,27.5931648 C134.08234,25.026613 135.293289,21.7653429 135.293289,17.8092567 C135.293289,13.8204756 134.08234,10.5428583 131.660403,7.97630651 C129.238467,5.40975473 126.231141,4.12649808 122.638335,4.12649808 C118.885136,4.12649808 115.805634,5.44244916 113.399737,8.0743908 C110.99384,10.7063324 109.79091,13.9512553 109.79091,17.8092567 C109.79091,21.6672581 110.99384,24.9040074 113.399737,27.5196015 C115.805634,30.1351957 118.885136,31.4429732 122.638335,31.4429732 Z" id="AUTO"></path>
                <path d="M24.5864959,44.8437395 L31.1305028,44.8437395 L26.8961454,79.6636628 L19.9671969,79.6636628 L10.0549511,56.6628966 L9.95871571,56.6628966 L7.21600692,79.6636628 L0.672,79.6636628 L4.90635742,44.8437395 L11.6428351,44.8437395 L21.699434,68.3349272 L21.7475517,68.3349272 L24.5864959,44.8437395 Z M57.94409,73.6805211 L57.2223245,79.6636628 L36.3873613,79.6636628 L40.573601,44.8437395 L60.494328,44.8437395 L59.7725625,50.8268812 L46.2996071,50.8268812 L45.2410177,59.4092567 L56.0193821,59.4092567 L55.2976166,65.3433563 L44.56737,65.3433563 L43.5568983,73.6805211 L57.94409,73.6805211 Z M102.513108,44.8437395 L109.538292,44.8437395 L95.6803946,79.6636628 L89.3769762,79.6636628 L86.8267382,56.0253487 L86.7305028,56.0253487 L78.4061411,79.6636628 L72.1508403,79.6636628 L66.6654228,44.8437395 L73.5462536,44.8437395 L76.5295508,68.1387586 L76.6257862,68.1387586 L84.5170887,44.8437395 L91.6866257,44.8437395 L93.9000398,67.9916322 L93.9962752,67.9916322 L102.513108,44.8437395 Z M124.803631,58.7226667 C125.252732,58.9842261 125.910334,59.3602121 126.776457,59.850636 C127.64258,60.3410599 128.300182,60.7252196 128.749283,61.0031264 C129.198383,61.2810333 129.759751,61.6570193 130.433402,62.1310958 C131.107053,62.6051722 131.620303,63.0465471 131.973168,63.4552337 C132.326033,63.8639203 132.694932,64.3379896 133.079875,64.8774559 C133.464819,65.4169222 133.737483,66.0135957 133.897876,66.6674943 C134.058269,67.3213928 134.138465,68.0406704 134.138465,68.8253487 C134.138465,72.3890957 133.023749,75.1517756 130.794285,77.1134713 C128.56482,79.0751669 125.701846,80.056 122.205276,80.056 C119.7673,80.056 117.51381,79.532889 115.444739,78.4866513 C113.375668,77.4404137 111.747702,75.969164 110.560793,74.0728582 L115.324445,69.7081073 C116.030175,71.0812942 116.992519,72.1438634 118.211507,72.8958467 C119.430494,73.6478301 120.697581,74.0238161 122.012805,74.0238161 C123.552579,74.0238161 124.819666,73.6151356 125.814103,72.7977625 C126.80854,71.9803893 127.305752,70.983209 127.305752,69.8061916 C127.305752,69.4465474 127.241595,69.119603 127.113281,68.8253487 C126.984966,68.5310943 126.840615,68.2777124 126.680222,68.0651954 C126.519828,67.8526784 126.247164,67.5992965 125.862221,67.3050421 C125.477277,67.0107878 125.148476,66.7819267 124.875808,66.6184521 C124.60314,66.4549775 124.146026,66.1852484 123.504453,65.8092567 C122.862881,65.433265 122.349631,65.1308415 121.964687,64.901977 C119.173847,63.2345357 117.329353,61.9921471 116.431152,61.1747739 C114.506434,59.4092479 113.54409,57.3004567 113.54409,54.8483372 C113.54409,51.7096242 114.626727,49.1839789 116.792035,47.2713257 C118.957342,45.3586724 121.659926,44.4023602 124.899867,44.4023602 C126.888742,44.4023602 128.789372,44.8600823 130.601814,45.7755402 C132.414256,46.6909982 133.91391,47.9660812 135.100819,49.6008276 L130.433402,53.7203678 C128.861549,51.4971128 126.904783,50.3855019 124.563043,50.3855019 C123.279898,50.3855019 122.245378,50.7451407 121.459451,51.4644291 C120.673525,52.1837175 120.296607,53.0501201 120.328685,54.0636628 C120.360764,54.9137309 120.705604,55.6575294 121.363216,56.2950805 C122.020828,56.9326315 123.167621,57.7418189 124.803631,58.7226667 Z" id="NEWS"></path>
            </g>
        </g>
    </g>
</svg>